<svg width="1200" height="800" viewBox="0 0 1200 800" xmlns="http://www.w3.org/2000/svg">
  <!-- Background -->
  <rect width="1200" height="800" fill="#f8fafc"/>
  
  <!-- Sidebar -->
  <rect x="0" y="0" width="280" height="800" fill="#1e293b" rx="0"/>
  
  <!-- Sidebar Header -->
  <rect x="20" y="20" width="240" height="60" fill="#334155" rx="8"/>
  <text x="40" y="45" fill="#f1f5f9" font-family="Inter, sans-serif" font-size="18" font-weight="600">Kuyash Farm</text>
  <text x="40" y="65" fill="#94a3b8" font-family="Inter, sans-serif" font-size="12">Management System</text>
  
  <!-- Sidebar Navigation -->
  <g transform="translate(20, 100)">
    <!-- Dashboard Item (Active) -->
    <rect x="0" y="0" width="240" height="48" fill="#3b82f6" rx="6"/>
    <circle cx="20" cy="24" r="8" fill="#ffffff"/>
    <text x="40" y="28" fill="#ffffff" font-family="Inter, sans-serif" font-size="14" font-weight="500">Dashboard</text>
    
    <!-- Other Nav Items -->
    <g transform="translate(0, 60)">
      <circle cx="20" cy="24" r="8" fill="#64748b"/>
      <text x="40" y="28" fill="#cbd5e1" font-family="Inter, sans-serif" font-size="14">Livestock</text>
    </g>
    
    <g transform="translate(0, 120)">
      <circle cx="20" cy="24" r="8" fill="#64748b"/>
      <text x="40" y="28" fill="#cbd5e1" font-family="Inter, sans-serif" font-size="14">Inventory</text>
    </g>
    
    <g transform="translate(0, 180)">
      <circle cx="20" cy="24" r="8" fill="#64748b"/>
      <text x="40" y="28" fill="#cbd5e1" font-family="Inter, sans-serif" font-size="14">Financial</text>
    </g>
    
    <g transform="translate(0, 240)">
      <circle cx="20" cy="24" r="8" fill="#64748b"/>
      <text x="40" y="28" fill="#cbd5e1" font-family="Inter, sans-serif" font-size="14">Reports</text>
    </g>
  </g>
  
  <!-- Main Content Area -->
  <g transform="translate(280, 0)">
    <!-- Header -->
    <rect x="0" y="0" width="920" height="80" fill="#ffffff" stroke="#e2e8f0" stroke-width="1"/>
    <text x="32" y="35" fill="#1e293b" font-family="Inter, sans-serif" font-size="24" font-weight="700">Dashboard</text>
    <text x="32" y="55" fill="#64748b" font-family="Inter, sans-serif" font-size="14">Welcome back! Here's what's happening on your farm today.</text>
    
    <!-- Action Buttons -->
    <rect x="720" y="20" width="80" height="40" fill="#3b82f6" rx="6"/>
    <text x="750" y="43" fill="#ffffff" font-family="Inter, sans-serif" font-size="12" font-weight="500" text-anchor="middle">Add Farm</text>
    
    <rect x="820" y="20" width="80" height="40" fill="#10b981" rx="6"/>
    <text x="860" y="43" fill="#ffffff" font-family="Inter, sans-serif" font-size="12" font-weight="500" text-anchor="middle">Quick Add</text>
    
    <!-- KPI Cards Row -->
    <g transform="translate(32, 100)">
      <!-- Total Animals Card -->
      <rect x="0" y="0" width="200" height="120" fill="#ffffff" rx="12" stroke="#e2e8f0" stroke-width="1" filter="drop-shadow(0 1px 3px rgba(0,0,0,0.1))"/>
      <circle cx="30" cy="30" r="12" fill="#dbeafe"/>
      <circle cx="30" cy="30" r="6" fill="#3b82f6"/>
      <text x="30" y="60" fill="#1e293b" font-family="Inter, sans-serif" font-size="28" font-weight="700">1,247</text>
      <text x="30" y="80" fill="#64748b" font-family="Inter, sans-serif" font-size="14">Total Animals</text>
      <text x="30" y="100" fill="#10b981" font-family="Inter, sans-serif" font-size="12">+12% from last month</text>
      
      <!-- Active Farms Card -->
      <g transform="translate(220, 0)">
        <rect x="0" y="0" width="200" height="120" fill="#ffffff" rx="12" stroke="#e2e8f0" stroke-width="1" filter="drop-shadow(0 1px 3px rgba(0,0,0,0.1))"/>
        <circle cx="30" cy="30" r="12" fill="#dcfce7"/>
        <circle cx="30" cy="30" r="6" fill="#10b981"/>
        <text x="30" y="60" fill="#1e293b" font-family="Inter, sans-serif" font-size="28" font-weight="700">24</text>
        <text x="30" y="80" fill="#64748b" font-family="Inter, sans-serif" font-size="14">Active Farms</text>
        <text x="30" y="100" fill="#10b981" font-family="Inter, sans-serif" font-size="12">All operational</text>
      </g>
      
      <!-- Revenue Card -->
      <g transform="translate(440, 0)">
        <rect x="0" y="0" width="200" height="120" fill="#ffffff" rx="12" stroke="#e2e8f0" stroke-width="1" filter="drop-shadow(0 1px 3px rgba(0,0,0,0.1))"/>
        <circle cx="30" cy="30" r="12" fill="#fef3c7"/>
        <circle cx="30" cy="30" r="6" fill="#f59e0b"/>
        <text x="30" y="60" fill="#1e293b" font-family="Inter, sans-serif" font-size="28" font-weight="700">$45.2K</text>
        <text x="30" y="80" fill="#64748b" font-family="Inter, sans-serif" font-size="14">Monthly Revenue</text>
        <text x="30" y="100" fill="#10b981" font-family="Inter, sans-serif" font-size="12">+8% from last month</text>
      </g>
      
      <!-- Alerts Card -->
      <g transform="translate(660, 0)">
        <rect x="0" y="0" width="200" height="120" fill="#ffffff" rx="12" stroke="#e2e8f0" stroke-width="1" filter="drop-shadow(0 1px 3px rgba(0,0,0,0.1))"/>
        <circle cx="30" cy="30" r="12" fill="#fee2e2"/>
        <circle cx="30" cy="30" r="6" fill="#ef4444"/>
        <text x="30" y="60" fill="#1e293b" font-family="Inter, sans-serif" font-size="28" font-weight="700">3</text>
        <text x="30" y="80" fill="#64748b" font-family="Inter, sans-serif" font-size="14">Active Alerts</text>
        <text x="30" y="100" fill="#ef4444" font-family="Inter, sans-serif" font-size="12">Requires attention</text>
      </g>
    </g>
    
    <!-- Main Content Grid -->
    <g transform="translate(32, 250)">
      <!-- Left Column - Module Cards -->
      <g>
        <!-- Livestock Management Card -->
        <rect x="0" y="0" width="280" height="200" fill="#ffffff" rx="12" stroke="#e2e8f0" stroke-width="1" filter="drop-shadow(0 2px 4px rgba(0,0,0,0.1))"/>
        <rect x="0" y="0" width="280" height="60" fill="#f8fafc" rx="12"/>
        <rect x="0" y="60" width="280" height="1" fill="#e2e8f0"/>
        <text x="20" y="35" fill="#1e293b" font-family="Inter, sans-serif" font-size="16" font-weight="600">Livestock Management</text>
        
        <!-- Mini chart representation -->
        <g transform="translate(20, 80)">
          <rect x="0" y="60" width="20" height="40" fill="#3b82f6" rx="2"/>
          <rect x="30" y="40" width="20" height="60" fill="#10b981" rx="2"/>
          <rect x="60" y="50" width="20" height="50" fill="#f59e0b" rx="2"/>
          <rect x="90" y="30" width="20" height="70" fill="#8b5cf6" rx="2"/>
          
          <text x="120" y="50" fill="#64748b" font-family="Inter, sans-serif" font-size="12">Cattle: 450</text>
          <text x="120" y="70" fill="#64748b" font-family="Inter, sans-serif" font-size="12">Poultry: 2,100</text>
          <text x="120" y="90" fill="#64748b" font-family="Inter, sans-serif" font-size="12">Goats: 180</text>
        </g>
        
        <!-- Inventory Management Card -->
        <g transform="translate(300, 0)">
          <rect x="0" y="0" width="280" height="200" fill="#ffffff" rx="12" stroke="#e2e8f0" stroke-width="1" filter="drop-shadow(0 2px 4px rgba(0,0,0,0.1))"/>
          <rect x="0" y="0" width="280" height="60" fill="#f8fafc" rx="12"/>
          <rect x="0" y="60" width="280" height="1" fill="#e2e8f0"/>
          <text x="20" y="35" fill="#1e293b" font-family="Inter, sans-serif" font-size="16" font-weight="600">Inventory Management</text>
          
          <!-- Inventory items -->
          <g transform="translate(20, 80)">
            <circle cx="15" cy="15" r="8" fill="#dbeafe"/>
            <text x="35" y="20" fill="#1e293b" font-family="Inter, sans-serif" font-size="14">Feed Stock: 85%</text>
            
            <circle cx="15" cy="45" r="8" fill="#dcfce7"/>
            <text x="35" y="50" fill="#1e293b" font-family="Inter, sans-serif" font-size="14">Medicine: 92%</text>
            
            <circle cx="15" cy="75" r="8" fill="#fef3c7"/>
            <text x="35" y="80" fill="#1e293b" font-family="Inter, sans-serif" font-size="14">Equipment: 78%</text>
          </g>
        </g>
      </g>
      
      <!-- Financial Overview Card -->
      <g transform="translate(0, 220)">
        <rect x="0" y="0" width="580" height="200" fill="#ffffff" rx="12" stroke="#e2e8f0" stroke-width="1" filter="drop-shadow(0 2px 4px rgba(0,0,0,0.1))"/>
        <rect x="0" y="0" width="580" height="60" fill="#f8fafc" rx="12"/>
        <rect x="0" y="60" width="580" height="1" fill="#e2e8f0"/>
        <text x="20" y="35" fill="#1e293b" font-family="Inter, sans-serif" font-size="16" font-weight="600">Financial Overview</text>
        
        <!-- Financial chart representation -->
        <g transform="translate(20, 80)">
          <path d="M 0 80 Q 50 60 100 70 T 200 50 T 300 60 T 400 40 T 500 45" stroke="#3b82f6" stroke-width="3" fill="none"/>
          <circle cx="0" cy="80" r="4" fill="#3b82f6"/>
          <circle cx="100" cy="70" r="4" fill="#3b82f6"/>
          <circle cx="200" cy="50" r="4" fill="#3b82f6"/>
          <circle cx="300" cy="60" r="4" fill="#3b82f6"/>
          <circle cx="400" cy="40" r="4" fill="#3b82f6"/>
          <circle cx="500" cy="45" r="4" fill="#3b82f6"/>
          
          <text x="0" y="110" fill="#64748b" font-family="Inter, sans-serif" font-size="10">Jan</text>
          <text x="100" y="110" fill="#64748b" font-family="Inter, sans-serif" font-size="10">Feb</text>
          <text x="200" y="110" fill="#64748b" font-family="Inter, sans-serif" font-size="10">Mar</text>
          <text x="300" y="110" fill="#64748b" font-family="Inter, sans-serif" font-size="10">Apr</text>
          <text x="400" y="110" fill="#64748b" font-family="Inter, sans-serif" font-size="10">May</text>
          <text x="500" y="110" fill="#64748b" font-family="Inter, sans-serif" font-size="10">Jun</text>
        </g>
      </g>
    </g>
    
    <!-- Right Sidebar Widgets -->
    <g transform="translate(620, 250)">
      <!-- Quick Stats Widget -->
      <rect x="0" y="0" width="260" height="140" fill="#ffffff" rx="12" stroke="#e2e8f0" stroke-width="1" filter="drop-shadow(0 1px 3px rgba(0,0,0,0.1))"/>
      <text x="20" y="30" fill="#1e293b" font-family="Inter, sans-serif" font-size="16" font-weight="600">Quick Stats</text>
      
      <g transform="translate(20, 50)">
        <text x="0" y="20" fill="#64748b" font-family="Inter, sans-serif" font-size="12">Today's Milk Production</text>
        <text x="0" y="40" fill="#1e293b" font-family="Inter, sans-serif" font-size="18" font-weight="600">2,450 L</text>
        
        <text x="0" y="70" fill="#64748b" font-family="Inter, sans-serif" font-size="12">Eggs Collected</text>
        <text x="0" y="90" fill="#1e293b" font-family="Inter, sans-serif" font-size="18" font-weight="600">1,280 pcs</text>
      </g>
      
      <!-- Recent Activities Widget -->
      <g transform="translate(0, 160)">
        <rect x="0" y="0" width="260" height="180" fill="#ffffff" rx="12" stroke="#e2e8f0" stroke-width="1" filter="drop-shadow(0 1px 3px rgba(0,0,0,0.1))"/>
        <text x="20" y="30" fill="#1e293b" font-family="Inter, sans-serif" font-size="16" font-weight="600">Recent Activities</text>
        
        <g transform="translate(20, 50)">
          <circle cx="8" cy="8" r="4" fill="#10b981"/>
          <text x="20" y="12" fill="#1e293b" font-family="Inter, sans-serif" font-size="12">Vaccination completed - Cattle Barn A</text>
          <text x="20" y="28" fill="#64748b" font-family="Inter, sans-serif" font-size="10">2 hours ago</text>
          
          <circle cx="8" cy="48" r="4" fill="#3b82f6"/>
          <text x="20" y="52" fill="#1e293b" font-family="Inter, sans-serif" font-size="12">Feed delivery received</text>
          <text x="20" y="68" fill="#64748b" font-family="Inter, sans-serif" font-size="10">4 hours ago</text>
          
          <circle cx="8" cy="88" r="4" fill="#f59e0b"/>
          <text x="20" y="92" fill="#1e293b" font-family="Inter, sans-serif" font-size="12">Health check scheduled</text>
          <text x="20" y="108" fill="#64748b" font-family="Inter, sans-serif" font-size="10">6 hours ago</text>
        </g>
      </g>
      
      <!-- Alerts Widget -->
      <g transform="translate(0, 360)">
        <rect x="0" y="0" width="260" height="120" fill="#ffffff" rx="12" stroke="#e2e8f0" stroke-width="1" filter="drop-shadow(0 1px 3px rgba(0,0,0,0.1))"/>
        <text x="20" y="30" fill="#1e293b" font-family="Inter, sans-serif" font-size="16" font-weight="600">Active Alerts</text>
        
        <g transform="translate(20, 50)">
          <circle cx="8" cy="8" r="4" fill="#ef4444"/>
          <text x="20" y="12" fill="#1e293b" font-family="Inter, sans-serif" font-size="12">Low feed stock in Barn C</text>
          
          <circle cx="8" cy="32" r="4" fill="#f59e0b"/>
          <text x="20" y="36" fill="#1e293b" font-family="Inter, sans-serif" font-size="12">Maintenance due for equipment</text>
          
          <circle cx="8" cy="56" r="4" fill="#ef4444"/>
          <text x="20" y="60" fill="#1e293b" font-family="Inter, sans-serif" font-size="12">Temperature alert in Incubator 2</text>
        </g>
      </g>
    </g>
  </g>
  
  <!-- Design annotations -->
  <g transform="translate(50, 720)">
    <text x="0" y="0" fill="#64748b" font-family="Inter, sans-serif" font-size="12" font-weight="500">Professional Dashboard Design - Sidebar Layout</text>
    <text x="0" y="20" fill="#94a3b8" font-family="Inter, sans-serif" font-size="10">Modern cards • Subtle shadows • Consistent spacing • Professional typography</text>
  </g>
</svg>